<mxfile host="app.diagrams.net" modified="2023-08-29T13:44:41.944Z" agent="Mozilla/5.0 (Windows NT 10.0; Win64; x64) AppleWebKit/537.36 (KHTML, like Gecko) Chrome/116.0.0.0 Safari/537.36" version="21.6.9" etag="dfbD5Xc3Ns-xNIGJJoSj" type="github">
  <diagram name="PÃ¡gina-1" id="7OFvZM1WlIS2IHxq6__e">
    <mxGraphModel>
      <root>
        <mxCell id="0" />
        <mxCell id="1" parent="0" />
      </root>
    </mxGraphModel>
  </diagram>
</mxfile>
